<?xml version="1.0" standalone="no"?>
<!DOCTYPE svg PUBLIC "-//W3C//DTD SVG 20010904//EN"
 "http://www.w3.org/TR/2001/REC-SVG-20010904/DTD/svg10.dtd">
<svg version="1.0" xmlns="http://www.w3.org/2000/svg"
 width="128.000000pt" height="128.000000pt" viewBox="0 0 128.000000 128.000000"
 preserveAspectRatio="xMidYMid meet">
<metadata>
Created by potrace 1.14, written by Peter Selinger 2001-2017
</metadata>
<g transform="translate(0.000000,128.000000) scale(0.100000,-0.100000)"
fill="#000000" stroke="none">
<path d="M865 1126 c-43 -44 -138 -126 -147 -126 -5 0 -6 -4 -3 -10 3 -5 2
-10 -4 -10 -16 0 -77 -63 -72 -75 2 -5 7 -28 12 -50 7 -36 5 -43 -20 -65 -76
-69 -187 -168 -215 -192 -49 -42 -68 -59 -147 -130 -41 -36 -90 -80 -109 -96
l-34 -31 59 -63 c33 -35 79 -85 101 -112 l41 -50 116 103 c63 56 118 109 121
117 6 15 129 74 155 74 19 0 86 60 124 112 19 25 30 56 34 90 10 82 59 116 85
58 16 -38 28 -38 68 3 50 49 61 82 45 134 -7 24 -19 51 -26 60 -11 13 -9 19
15 40 26 22 30 23 45 9 19 -18 41 -21 41 -7 0 5 -18 32 -40 60 -43 54 -43 51
10 94 21 18 21 19 4 38 -10 12 -20 16 -22 10 -2 -6 -9 -11 -15 -11 -7 0 -18
-9 -25 -20 -16 -26 -26 -25 -55 4 -24 24 -99 67 -114 65 -4 -1 -17 -11 -28
-23z m80 -103 l18 -28 -21 19 c-12 11 -22 23 -22 28 0 14 7 9 25 -19z m-81
-25 c-16 -13 -51 -43 -79 -67 -42 -38 -51 -42 -54 -26 -1 10 3 22 10 26 8 4
43 28 79 52 67 46 96 55 44 15z m-149 -47 c7 -12 -46 -62 -58 -54 -5 3 4 18
19 33 35 34 32 32 39 21z m175 -16 c-7 -9 -15 -13 -19 -10 -3 3 1 10 9 15 21
14 24 12 10 -5z m-40 -28 c0 -2 -10 -12 -22 -23 l-23 -19 19 23 c18 21 26 27
26 19z m132 -85 c5 -5 8 -20 6 -33 -4 -32 -76 -49 -95 -22 -17 22 -16 38 2 57
16 16 70 15 87 -2z m-308 -73 c-10 -11 -28 -25 -39 -31 -11 -6 -4 4 15 20 41
36 51 41 24 11z m-64 -52 c0 -2 -15 -16 -32 -33 l-33 -29 29 33 c28 30 36 37
36 29z m146 -48 c15 -16 15 -22 -2 -64 -16 -42 -54 -85 -76 -85 -5 0 -20 11
-33 24 -33 33 -25 62 26 107 47 40 62 43 85 18z m-356 -442 c0 -2 -12 -14 -27
-28 l-28 -24 24 28 c23 25 31 32 31 24z"/>
</g>
</svg>
